<?xml version="1.0" encoding="iso-8859-1"?>
<!-- Uploaded to: SVG Repo, www.svgrepo.com, Generator: SVG Repo Mixer Tools -->
<!DOCTYPE svg PUBLIC "-//W3C//DTD SVG 1.1//EN" "http://www.w3.org/Graphics/SVG/1.1/DTD/svg11.dtd">
<svg fill="white" height="800px" width="800px" version="1.1" id="Capa_1" xmlns="http://www.w3.org/2000/svg" xmlns:xlink="http://www.w3.org/1999/xlink" 
	 viewBox="0 0 306.334 306.334" xml:space="preserve">
<g>
	<path d="M232.457,133.167h39.621c-9.53-57.069-59.138-100.572-118.913-100.572c-59.772,0-109.38,43.503-118.91,100.572h39.621
		c8.947-35.453,41.097-61.773,79.289-61.773C191.358,71.393,223.51,97.714,232.457,133.167z"/>
	<path d="M272.079,173.167h-39.622c-8.946,35.453-41.098,61.773-79.291,61.773c-38.192,0-70.343-26.321-79.289-61.773H34.255
		c9.529,57.068,59.138,100.573,118.91,100.573C212.941,273.739,262.55,230.235,272.079,173.167z"/>
	<path d="M111.394,153.167c0,23.033,18.739,41.772,41.772,41.772c23.034,0,41.774-18.739,41.774-41.772
		c0-23.034-18.74-41.774-41.774-41.774C130.133,111.393,111.394,130.133,111.394,153.167z"/>
	<path d="M12.5,87.833c6.903,0,12.5-5.597,12.5-12.5V28.5h46.834c6.903,0,12.5-5.597,12.5-12.5s-5.597-12.5-12.5-12.5H12.5
		C5.597,3.5,0,9.097,0,16v59.333C0,82.237,5.597,87.833,12.5,87.833z"/>
	<path d="M293.834,3.5H234.5C227.597,3.5,222,9.097,222,16s5.597,12.5,12.5,12.5h46.834v46.833c0,6.903,5.597,12.5,12.5,12.5
		s12.5-5.597,12.5-12.5V16C306.334,9.097,300.737,3.5,293.834,3.5z"/>
	<path d="M71.834,277.833H25V231c0-6.903-5.597-12.5-12.5-12.5S0,224.097,0,231v59.333c0,6.903,5.597,12.5,12.5,12.5h59.334
		c6.903,0,12.5-5.597,12.5-12.5S78.737,277.833,71.834,277.833z"/>
	<path d="M293.834,218.5c-6.903,0-12.5,5.597-12.5,12.5v46.833H234.5c-6.903,0-12.5,5.597-12.5,12.5s5.597,12.5,12.5,12.5h59.334
		c6.903,0,12.5-5.597,12.5-12.5V231C306.334,224.097,300.737,218.5,293.834,218.5z"/>
</g>
</svg>